<?xml version="1.0" encoding="UTF-8" standalone="no"?>
<!DOCTYPE svg PUBLIC "-//W3C//DTD SVG 1.1//EN"
 "http://www.w3.org/Graphics/SVG/1.1/DTD/svg11.dtd">
<!-- Generated by graphviz version 2.40.1 (20161225.0304)
 -->
<!-- Title: unix Pages: 1 -->
<svg width="3116pt" height="548pt"
 viewBox="0.00 0.00 3116.00 548.00" xmlns="http://www.w3.org/2000/svg" xmlns:xlink="http://www.w3.org/1999/xlink">
<g id="graph0" class="graph" transform="scale(1 1) rotate(0) translate(4 544)">
<title>unix</title>
<polygon fill="#ffffff" stroke="transparent" points="-4,4 -4,-544 3112,-544 3112,4 -4,4"/>
<!-- runtime/tesla -->
<g id="node1" class="node">
<title>runtime/tesla</title>
<ellipse fill="#b2dfee" stroke="#b2dfee" cx="306" cy="-378" rx="56.0528" ry="18"/>
<text text-anchor="middle" x="306" y="-373.8" font-family="Times,serif" font-size="14.00" fill="#000000">runtime/tesla</text>
</g>
<!-- core -->
<g id="node2" class="node">
<title>core</title>
<ellipse fill="#b2dfee" stroke="#b2dfee" cx="1641" cy="-162" rx="27" ry="18"/>
<text text-anchor="middle" x="1641" y="-157.8" font-family="Times,serif" font-size="14.00" fill="#000000">core</text>
</g>
<!-- runtime/tesla&#45;&gt;core -->
<g id="edge1" class="edge">
<title>runtime/tesla&#45;&gt;core</title>
<path fill="none" stroke="#000000" d="M300.7759,-359.9911C292.226,-326.2758 279.8474,-253.6452 319,-216 366.5543,-170.2766 1393.5856,-163.1295 1603.6654,-162.1446"/>
<polygon fill="#000000" stroke="#000000" points="1603.8889,-165.6437 1613.873,-162.0986 1603.8573,-158.6438 1603.8889,-165.6437"/>
</g>
<!-- watson -->
<g id="node3" class="node">
<title>watson</title>
<ellipse fill="#b2dfee" stroke="#b2dfee" cx="984" cy="-90" rx="35.3216" ry="18"/>
<text text-anchor="middle" x="984" y="-85.8" font-family="Times,serif" font-size="14.00" fill="#000000">watson</text>
</g>
<!-- runtime/tesla&#45;&gt;watson -->
<g id="edge2" class="edge">
<title>runtime/tesla&#45;&gt;watson</title>
<path fill="none" stroke="#000000" d="M263.1234,-366.1628C187.6769,-343.1556 43.7967,-288.2533 95,-216 150.8349,-137.2111 205.5196,-163.9672 300,-144 422.6919,-118.0707 806.245,-98.2655 938.5744,-92.0501"/>
<polygon fill="#000000" stroke="#000000" points="938.9363,-95.5372 948.7625,-91.5752 938.6103,-88.5448 938.9363,-95.5372"/>
</g>
<!-- runtime/watson -->
<g id="node4" class="node">
<title>runtime/watson</title>
<ellipse fill="#b2dfee" stroke="#b2dfee" cx="169" cy="-234" rx="65.2477" ry="18"/>
<text text-anchor="middle" x="169" y="-229.8" font-family="Times,serif" font-size="14.00" fill="#000000">runtime/watson</text>
</g>
<!-- runtime/tesla&#45;&gt;runtime/watson -->
<g id="edge3" class="edge">
<title>runtime/tesla&#45;&gt;runtime/watson</title>
<path fill="none" stroke="#000000" d="M289.4746,-360.6302C265.3026,-335.2232 220.1839,-287.7991 192.5469,-258.75"/>
<polygon fill="#000000" stroke="#000000" points="195.0126,-256.2639 185.584,-251.4314 189.9411,-261.0888 195.0126,-256.2639"/>
</g>
<!-- runtime -->
<g id="node5" class="node">
<title>runtime</title>
<ellipse fill="#b2dfee" stroke="#b2dfee" cx="466" cy="-306" rx="37.7266" ry="18"/>
<text text-anchor="middle" x="466" y="-301.8" font-family="Times,serif" font-size="14.00" fill="#000000">runtime</text>
</g>
<!-- runtime/tesla&#45;&gt;runtime -->
<g id="edge4" class="edge">
<title>runtime/tesla&#45;&gt;runtime</title>
<path fill="none" stroke="#000000" d="M335.0392,-362.3771C360.8368,-350.1148 398.5611,-333.1494 426.9708,-321.0397"/>
<polygon fill="#000000" stroke="#000000" points="428.3682,-324.2489 436.2175,-317.1328 425.6438,-317.8008 428.3682,-324.2489"/>
</g>
<!-- runtime/ecl -->
<g id="node6" class="node">
<title>runtime/ecl</title>
<ellipse fill="#b2dfee" stroke="#b2dfee" cx="378" cy="-234" rx="50.2551" ry="18"/>
<text text-anchor="middle" x="378" y="-229.8" font-family="Times,serif" font-size="14.00" fill="#000000">runtime/ecl</text>
</g>
<!-- runtime/tesla&#45;&gt;runtime/ecl -->
<g id="edge5" class="edge">
<title>runtime/tesla&#45;&gt;runtime/ecl</title>
<path fill="none" stroke="#000000" d="M310.4457,-359.7623C320.4942,-334.6317 342.9811,-289.1991 359.4543,-260.3694"/>
<polygon fill="#000000" stroke="#000000" points="362.5337,-262.0369 364.568,-251.6392 356.4936,-258.4989 362.5337,-262.0369"/>
</g>
<!-- ecl -->
<g id="node7" class="node">
<title>ecl</title>
<ellipse fill="#b2dfee" stroke="#b2dfee" cx="2187" cy="-18" rx="27" ry="18"/>
<text text-anchor="middle" x="2187" y="-13.8" font-family="Times,serif" font-size="14.00" fill="#000000">ecl</text>
</g>
<!-- runtime/tesla&#45;&gt;ecl -->
<g id="edge6" class="edge">
<title>runtime/tesla&#45;&gt;ecl</title>
<path fill="none" stroke="#000000" d="M251.7662,-372.9566C173.4558,-362.3576 38,-330.1304 38,-234 38,-234 38,-234 38,-162 38,6.8076 239.7233,-94.683 407,-72 760.9913,-23.9982 1926.3426,-18.656 2149.7757,-18.0709"/>
<polygon fill="#000000" stroke="#000000" points="2149.9964,-21.5704 2159.9877,-18.0458 2149.9791,-14.5705 2149.9964,-21.5704"/>
</g>
<!-- core&#45;&gt;watson -->
<g id="edge98" class="edge">
<title>core&#45;&gt;watson</title>
<path fill="none" stroke="#000000" d="M1614.3729,-158.6338C1588.1939,-154.7627 1547.8289,-148.3792 1513,-144 1333.8594,-121.4756 1120.2123,-102.3153 1028.8475,-94.1787"/>
<polygon fill="#000000" stroke="#000000" points="1029.1089,-90.6882 1018.8378,-93.2875 1028.488,-97.6606 1029.1089,-90.6882"/>
</g>
<!-- core&#45;&gt;ecl -->
<g id="edge100" class="edge">
<title>core&#45;&gt;ecl</title>
<path fill="none" stroke="#000000" d="M1660.9146,-149.6005C1698.5232,-130.2356 1781.7635,-92.8736 1856,-72 1959.9402,-42.7743 2087.4734,-27.1441 2149.6531,-21.0578"/>
<polygon fill="#000000" stroke="#000000" points="2150.1471,-24.5267 2159.7712,-20.0966 2149.485,-17.5581 2150.1471,-24.5267"/>
</g>
<!-- core/verifications -->
<g id="node13" class="node">
<title>core/verifications</title>
<ellipse fill="#b2dfee" stroke="#b2dfee" cx="1945" cy="-90" rx="71.4945" ry="18"/>
<text text-anchor="middle" x="1945" y="-85.8" font-family="Times,serif" font-size="14.00" fill="#000000">core/verifications</text>
</g>
<!-- core&#45;&gt;core/verifications -->
<g id="edge99" class="edge">
<title>core&#45;&gt;core/verifications</title>
<path fill="none" stroke="#000000" d="M1665.97,-155.0963C1712.5236,-143.3788 1813.429,-119.3777 1880.3241,-104.0209"/>
<polygon fill="#000000" stroke="#000000" points="1881.3785,-107.3701 1890.3454,-101.727 1879.8165,-100.5466 1881.3785,-107.3701"/>
</g>
<!-- watson&#45;&gt;core -->
<g id="edge110" class="edge">
<title>watson&#45;&gt;core</title>
<path fill="none" stroke="#000000" d="M1018.9526,-92.5384C1105.9998,-99.4627 1338.4357,-119.7877 1531,-144 1555.9426,-147.1362 1583.7244,-151.3002 1605.2334,-154.8333"/>
<polygon fill="#000000" stroke="#000000" points="1604.8079,-158.3107 1615.2486,-156.5098 1605.9636,-151.4068 1604.8079,-158.3107"/>
</g>
<!-- watson&#45;&gt;ecl -->
<g id="edge111" class="edge">
<title>watson&#45;&gt;ecl</title>
<path fill="none" stroke="#000000" d="M1017.9445,-84.8117C1045.8277,-80.7333 1086.3866,-75.2204 1122,-72 1523.2259,-35.7184 2011.8576,-22.1 2149.3963,-18.8313"/>
<polygon fill="#000000" stroke="#000000" points="2149.8739,-22.3211 2159.7893,-18.5882 2149.7101,-15.3231 2149.8739,-22.3211"/>
</g>
<!-- runtime/watson&#45;&gt;core -->
<g id="edge68" class="edge">
<title>runtime/watson&#45;&gt;core</title>
<path fill="none" stroke="#000000" d="M216.7858,-221.6185C227.0216,-219.387 237.8197,-217.3453 248,-216 521.1616,-179.9028 1410.3987,-165.2987 1603.6967,-162.5106"/>
<polygon fill="#000000" stroke="#000000" points="1603.9557,-166.0074 1613.9048,-162.3651 1603.8559,-159.0081 1603.9557,-166.0074"/>
</g>
<!-- runtime/watson&#45;&gt;watson -->
<g id="edge69" class="edge">
<title>runtime/watson&#45;&gt;watson</title>
<path fill="none" stroke="#000000" d="M203.6839,-218.7053C252.0236,-198.1015 342.8649,-161.9486 424,-144 522.0293,-122.3141 823.7551,-100.6337 938.7997,-92.9351"/>
<polygon fill="#000000" stroke="#000000" points="939.271,-96.4116 949.0166,-92.2554 938.8063,-89.427 939.271,-96.4116"/>
</g>
<!-- runtime&#45;&gt;runtime/tesla -->
<g id="edge76" class="edge">
<title>runtime&#45;&gt;runtime/tesla</title>
<path fill="none" stroke="#000000" d="M441.2065,-319.5955C417.3554,-331.0408 380.9488,-347.5009 351.8624,-360.0317"/>
<polygon fill="#000000" stroke="#000000" points="350.126,-356.9676 342.3076,-364.1177 352.8784,-363.4037 350.126,-356.9676"/>
</g>
<!-- runtime&#45;&gt;core -->
<g id="edge75" class="edge">
<title>runtime&#45;&gt;core</title>
<path fill="none" stroke="#000000" d="M489.4676,-291.8992C525.6661,-270.9725 597.9679,-232.404 665,-216 848.0919,-171.1939 1448.3552,-163.4873 1603.9147,-162.2326"/>
<polygon fill="#000000" stroke="#000000" points="1603.9499,-165.7325 1613.9228,-162.1559 1603.8962,-158.7327 1603.9499,-165.7325"/>
</g>
<!-- runtime&#45;&gt;watson -->
<g id="edge77" class="edge">
<title>runtime&#45;&gt;watson</title>
<path fill="none" stroke="#000000" d="M470.2522,-287.983C479.3995,-253.5831 504.4286,-178.8747 556,-144 617.6553,-102.3062 841.5681,-92.8035 938.6203,-90.6385"/>
<polygon fill="#000000" stroke="#000000" points="938.7845,-94.1359 948.71,-90.4298 938.6397,-87.1374 938.7845,-94.1359"/>
</g>
<!-- runtime&#45;&gt;runtime/ecl -->
<g id="edge78" class="edge">
<title>runtime&#45;&gt;runtime/ecl</title>
<path fill="none" stroke="#000000" d="M442.6432,-291.4297C429.6835,-281.8337 413.7665,-269.0437 400.8931,-257.9697"/>
<polygon fill="#000000" stroke="#000000" points="403.1531,-255.2965 393.3246,-251.3403 398.5408,-260.5621 403.1531,-255.2965"/>
</g>
<!-- runtime&#45;&gt;ecl -->
<g id="edge79" class="edge">
<title>runtime&#45;&gt;ecl</title>
<path fill="none" stroke="#000000" d="M465.2391,-287.9891C464.8831,-253.2544 469.7488,-177.4886 516,-144 670.8199,-31.9014 749.9255,-92.1741 940,-72 1183.6287,-46.1418 1969.7678,-23.8336 2149.9595,-18.9784"/>
<polygon fill="#000000" stroke="#000000" points="2150.095,-22.4761 2159.9975,-18.7091 2149.9072,-15.4786 2150.095,-22.4761"/>
</g>
<!-- runtime/ecl&#45;&gt;runtime/tesla -->
<g id="edge118" class="edge">
<title>runtime/ecl&#45;&gt;runtime/tesla</title>
<path fill="none" stroke="#000000" d="M373.547,-252.256C363.4969,-277.3854 341.0236,-322.7902 324.5554,-351.6138"/>
<polygon fill="#000000" stroke="#000000" points="321.4767,-349.945 319.4429,-360.3428 327.5169,-353.4827 321.4767,-349.945"/>
</g>
<!-- runtime/ecl&#45;&gt;core -->
<g id="edge117" class="edge">
<title>runtime/ecl&#45;&gt;core</title>
<path fill="none" stroke="#000000" d="M426.8648,-229.4845C470.6223,-225.5467 536.5566,-219.8739 594,-216 988.7321,-189.3802 1467.9631,-169.0346 1603.6266,-163.4997"/>
<polygon fill="#000000" stroke="#000000" points="1604.0344,-166.9861 1613.884,-163.0828 1603.7501,-159.9919 1604.0344,-166.9861"/>
</g>
<!-- runtime/ecl&#45;&gt;watson -->
<g id="edge119" class="edge">
<title>runtime/ecl&#45;&gt;watson</title>
<path fill="none" stroke="#000000" d="M391.7317,-216.5774C409.56,-195.3717 442.8257,-160.3722 480,-144 561.7402,-108.0001 830.7368,-95.1391 938.6334,-91.3565"/>
<polygon fill="#000000" stroke="#000000" points="938.9883,-94.8465 948.8634,-91.0083 938.7501,-87.8506 938.9883,-94.8465"/>
</g>
<!-- runtime/ecl&#45;&gt;runtime -->
<g id="edge120" class="edge">
<title>runtime/ecl&#45;&gt;runtime</title>
<path fill="none" stroke="#000000" d="M403.1008,-249.8675C415.9348,-259.4563 431.3085,-271.8537 443.7193,-282.5578"/>
<polygon fill="#000000" stroke="#000000" points="441.569,-285.3276 451.3906,-289.3008 446.1904,-280.0699 441.569,-285.3276"/>
</g>
<!-- runtime/ecl&#45;&gt;ecl -->
<g id="edge121" class="edge">
<title>runtime/ecl&#45;&gt;ecl</title>
<path fill="none" stroke="#000000" d="M379.0217,-215.7646C382.0616,-180.9864 394.1306,-105.6528 442,-72 478.1891,-46.5586 1900.3557,-22.5991 2149.8357,-18.5875"/>
<polygon fill="#000000" stroke="#000000" points="2149.9099,-22.0868 2159.8525,-18.427 2149.7977,-15.0877 2149.9099,-22.0868"/>
</g>
<!-- ecl&#45;&gt;core -->
<g id="edge26" class="edge">
<title>ecl&#45;&gt;core</title>
<path fill="none" stroke="#000000" d="M2160.255,-21.0559C2105.4996,-27.1409 1977.9509,-42.7714 1874,-72 1800.5157,-92.6621 1718.2091,-129.4802 1673.5893,-149.0064"/>
<polygon fill="#000000" stroke="#000000" points="1672.1643,-145.8094 1664.3944,-153.0121 1674.9601,-152.2269 1672.1643,-145.8094"/>
</g>
<!-- modules/rap/bundles/runtime/tesla -->
<g id="node8" class="node">
<title>modules/rap/bundles/runtime/tesla</title>
<ellipse fill="#b2dfee" stroke="#b2dfee" cx="1275" cy="-450" rx="132.334" ry="18"/>
<text text-anchor="middle" x="1275" y="-445.8" font-family="Times,serif" font-size="14.00" fill="#000000">modules/rap/bundles/runtime/tesla</text>
</g>
<!-- modules/rap/bundles/runtime/tesla&#45;&gt;core -->
<g id="edge7" class="edge">
<title>modules/rap/bundles/runtime/tesla&#45;&gt;core</title>
<path fill="none" stroke="#000000" d="M1308.2888,-432.3962C1328.0203,-421.9135 1353.4905,-408.2978 1376,-396 1433.6204,-364.5198 1453.9667,-365.3124 1505,-324 1538.049,-297.2462 1540.6025,-284.5173 1568,-252 1586.6609,-229.8519 1607.4178,-204.1543 1622.0128,-185.9023"/>
<polygon fill="#000000" stroke="#000000" points="1624.7535,-188.0791 1628.2554,-178.0797 1619.2821,-183.7128 1624.7535,-188.0791"/>
</g>
<!-- modules/rap/bundles/runtime/tesla&#45;&gt;watson -->
<g id="edge9" class="edge">
<title>modules/rap/bundles/runtime/tesla&#45;&gt;watson</title>
<path fill="none" stroke="#000000" d="M1145.0523,-446.2871C960.8673,-437.4307 646,-407.454 646,-306 646,-306 646,-306 646,-234 646,-170.5101 850.4004,-118.6838 941.2985,-98.7754"/>
<polygon fill="#000000" stroke="#000000" points="942.2492,-102.1508 951.284,-96.617 940.7703,-95.3088 942.2492,-102.1508"/>
</g>
<!-- modules/rap/bundles/runtime -->
<g id="node9" class="node">
<title>modules/rap/bundles/runtime</title>
<ellipse fill="#b2dfee" stroke="#b2dfee" cx="1237" cy="-378" rx="113.5088" ry="18"/>
<text text-anchor="middle" x="1237" y="-373.8" font-family="Times,serif" font-size="14.00" fill="#000000">modules/rap/bundles/runtime</text>
</g>
<!-- modules/rap/bundles/runtime/tesla&#45;&gt;modules/rap/bundles/runtime -->
<g id="edge8" class="edge">
<title>modules/rap/bundles/runtime/tesla&#45;&gt;modules/rap/bundles/runtime</title>
<path fill="none" stroke="#000000" d="M1259.4586,-431.8314C1254.4854,-423.8771 1249.2571,-414.369 1244.9692,-405.5723"/>
<polygon fill="#000000" stroke="#000000" points="1248.1105,-404.0262 1240.7421,-396.4133 1241.7547,-406.9596 1248.1105,-404.0262"/>
</g>
<!-- modules/rap/bundles/runtime/watson -->
<g id="node10" class="node">
<title>modules/rap/bundles/runtime/watson</title>
<ellipse fill="#b2dfee" stroke="#b2dfee" cx="815" cy="-234" rx="141.0299" ry="18"/>
<text text-anchor="middle" x="815" y="-229.8" font-family="Times,serif" font-size="14.00" fill="#000000">modules/rap/bundles/runtime/watson</text>
</g>
<!-- modules/rap/bundles/runtime/tesla&#45;&gt;modules/rap/bundles/runtime/watson -->
<g id="edge10" class="edge">
<title>modules/rap/bundles/runtime/tesla&#45;&gt;modules/rap/bundles/runtime/watson</title>
<path fill="none" stroke="#000000" d="M1218.5947,-433.7086C1187.2878,-424.0167 1147.932,-410.7508 1114,-396 1016.5506,-353.6371 908.3356,-290.7676 852.6595,-257.1648"/>
<polygon fill="#000000" stroke="#000000" points="854.2267,-254.0221 843.8604,-251.8335 850.5993,-260.009 854.2267,-254.0221"/>
</g>
<!-- modules/rap/bundles/runtime&#45;&gt;core -->
<g id="edge105" class="edge">
<title>modules/rap/bundles/runtime&#45;&gt;core</title>
<path fill="none" stroke="#000000" d="M1334.9297,-368.7328C1378.8216,-361.3236 1429.8488,-347.991 1471,-324 1527.2534,-291.2044 1521.8941,-259.8842 1570,-216 1583.6086,-203.5856 1599.8989,-191.0498 1613.4409,-181.1855"/>
<polygon fill="#000000" stroke="#000000" points="1615.8083,-183.7944 1621.8874,-175.1171 1611.7239,-178.1095 1615.8083,-183.7944"/>
</g>
<!-- modules/rap/bundles/runtime&#45;&gt;watson -->
<g id="edge107" class="edge">
<title>modules/rap/bundles/runtime&#45;&gt;watson</title>
<path fill="none" stroke="#000000" d="M1208.325,-360.4756C1192.6594,-350.4559 1173.2061,-337.2703 1157,-324 1121.7421,-295.1293 1112.3935,-287.6434 1084,-252 1048.5749,-207.5295 1015.6058,-149.677 997.7872,-116.5059"/>
<polygon fill="#000000" stroke="#000000" points="1000.7517,-114.626 992.9656,-107.4408 994.5715,-117.9132 1000.7517,-114.626"/>
</g>
<!-- modules/rap/bundles/runtime&#45;&gt;ecl -->
<g id="edge109" class="edge">
<title>modules/rap/bundles/runtime&#45;&gt;ecl</title>
<path fill="none" stroke="#000000" d="M1220.1347,-360.0624C1212.0493,-350.2224 1203.2212,-337.3334 1199,-324 1184.2412,-277.3815 1199.3536,-260.3265 1220,-216 1270.6044,-107.3554 1331.2155,-98.9411 1448,-72 1583.7895,-40.6746 2019.0554,-23.6938 2149.6276,-19.2145"/>
<polygon fill="#000000" stroke="#000000" points="2150.0282,-22.703 2159.9039,-18.8663 2149.7911,-15.707 2150.0282,-22.703"/>
</g>
<!-- modules/rap/bundles/runtime&#45;&gt;modules/rap/bundles/runtime/tesla -->
<g id="edge106" class="edge">
<title>modules/rap/bundles/runtime&#45;&gt;modules/rap/bundles/runtime/tesla</title>
<path fill="none" stroke="#000000" d="M1252.3816,-395.9134C1257.4256,-403.956 1262.7459,-413.6255 1267.0908,-422.5508"/>
<polygon fill="#000000" stroke="#000000" points="1264.0021,-424.2115 1271.3634,-431.8314 1270.3606,-421.2841 1264.0021,-424.2115"/>
</g>
<!-- modules/rap/bundles/runtime/ecl -->
<g id="node19" class="node">
<title>modules/rap/bundles/runtime/ecl</title>
<ellipse fill="#b2dfee" stroke="#b2dfee" cx="1335" cy="-306" rx="126.5369" ry="18"/>
<text text-anchor="middle" x="1335" y="-301.8" font-family="Times,serif" font-size="14.00" fill="#000000">modules/rap/bundles/runtime/ecl</text>
</g>
<!-- modules/rap/bundles/runtime&#45;&gt;modules/rap/bundles/runtime/ecl -->
<g id="edge108" class="edge">
<title>modules/rap/bundles/runtime&#45;&gt;modules/rap/bundles/runtime/ecl</title>
<path fill="none" stroke="#000000" d="M1255.309,-360.2022C1267.0717,-350.8729 1282.6337,-339.3303 1296.9277,-329.2976"/>
<polygon fill="#000000" stroke="#000000" points="1298.9334,-332.1659 1305.1589,-323.593 1294.9461,-326.4125 1298.9334,-332.1659"/>
</g>
<!-- modules/rap/bundles/runtime/watson&#45;&gt;core -->
<g id="edge80" class="edge">
<title>modules/rap/bundles/runtime/watson&#45;&gt;core</title>
<path fill="none" stroke="#000000" d="M928.5214,-223.2619C954.6264,-220.8345 982.2742,-218.2969 1008,-216 1234.3367,-195.7916 1506.353,-173.1351 1603.928,-165.0596"/>
<polygon fill="#000000" stroke="#000000" points="1604.477,-168.5263 1614.1544,-164.2138 1603.8999,-161.5501 1604.477,-168.5263"/>
</g>
<!-- modules/rap/bundles/runtime/watson&#45;&gt;watson -->
<g id="edge81" class="edge">
<title>modules/rap/bundles/runtime/watson&#45;&gt;watson</title>
<path fill="none" stroke="#000000" d="M836.0623,-216.0535C866.8959,-189.781 924.2864,-140.8802 957.8016,-112.3229"/>
<polygon fill="#000000" stroke="#000000" points="960.4357,-114.6767 965.7773,-105.527 955.8957,-109.3486 960.4357,-114.6767"/>
</g>
<!-- modules/nebula -->
<g id="node11" class="node">
<title>modules/nebula</title>
<ellipse fill="#b2dfee" stroke="#b2dfee" cx="167" cy="-450" rx="66.208" ry="18"/>
<text text-anchor="middle" x="167" y="-445.8" font-family="Times,serif" font-size="14.00" fill="#000000">modules/nebula</text>
</g>
<!-- modules/nebula&#45;&gt;runtime/tesla -->
<g id="edge12" class="edge">
<title>modules/nebula&#45;&gt;runtime/tesla</title>
<path fill="none" stroke="#000000" d="M197.8486,-434.0209C218.2839,-423.4357 245.2561,-409.4645 267.1523,-398.1226"/>
<polygon fill="#000000" stroke="#000000" points="268.922,-401.1476 276.1917,-393.4403 265.7024,-394.932 268.922,-401.1476"/>
</g>
<!-- modules/nebula&#45;&gt;core -->
<g id="edge11" class="edge">
<title>modules/nebula&#45;&gt;core</title>
<path fill="none" stroke="#000000" d="M170.3995,-431.9022C180.149,-385.8026 212.9533,-264.2019 295,-216 352.9421,-181.9594 1392.1511,-165.511 1603.6267,-162.5087"/>
<polygon fill="#000000" stroke="#000000" points="1603.9475,-166.0046 1613.8973,-162.3643 1603.849,-159.0053 1603.9475,-166.0046"/>
</g>
<!-- modules/nebula&#45;&gt;runtime -->
<g id="edge13" class="edge">
<title>modules/nebula&#45;&gt;runtime</title>
<path fill="none" stroke="#000000" d="M215.7494,-437.7405C273.8738,-423.0277 364.1001,-399.8466 371,-396 400.9564,-379.2996 428.6177,-350.9992 446.2737,-330.5869"/>
<polygon fill="#000000" stroke="#000000" points="448.9723,-332.8161 452.7579,-322.9207 443.6277,-328.2955 448.9723,-332.8161"/>
</g>
<!-- modules/nebula&#45;&gt;runtime/ecl -->
<g id="edge14" class="edge">
<title>modules/nebula&#45;&gt;runtime/ecl</title>
<path fill="none" stroke="#000000" d="M180.4954,-432.1368C194.8279,-413.5228 218.4793,-383.8055 241,-360 276.7759,-322.1831 321.7775,-282.0653 350.2263,-257.518"/>
<polygon fill="#000000" stroke="#000000" points="352.8354,-259.8909 358.1423,-250.721 348.2753,-254.58 352.8354,-259.8909"/>
</g>
<!-- modules/nebula&#45;&gt;ecl -->
<g id="edge15" class="edge">
<title>modules/nebula&#45;&gt;ecl</title>
<path fill="none" stroke="#000000" d="M126.574,-435.645C77.1498,-415.1981 0,-372.6126 0,-306 0,-306 0,-306 0,-162 0,-117.0781 7.9817,-95.9288 46,-72 92.3598,-42.8211 1868.5514,-21.5939 2149.6897,-18.4136"/>
<polygon fill="#000000" stroke="#000000" points="2149.8265,-21.9124 2159.7864,-18.2999 2149.7476,-14.9129 2149.8265,-21.9124"/>
</g>
<!-- runtime/tests -->
<g id="node12" class="node">
<title>runtime/tests</title>
<ellipse fill="#b2dfee" stroke="#b2dfee" cx="307" cy="-450" rx="55.5854" ry="18"/>
<text text-anchor="middle" x="307" y="-445.8" font-family="Times,serif" font-size="14.00" fill="#000000">runtime/tests</text>
</g>
<!-- runtime/tests&#45;&gt;runtime/tesla -->
<g id="edge16" class="edge">
<title>runtime/tests&#45;&gt;runtime/tesla</title>
<path fill="none" stroke="#000000" d="M306.7477,-431.8314C306.6407,-424.131 306.5135,-414.9743 306.3947,-406.4166"/>
<polygon fill="#000000" stroke="#000000" points="309.8944,-406.3637 306.2557,-396.4133 302.8951,-406.4609 309.8944,-406.3637"/>
</g>
<!-- core/verifications&#45;&gt;core -->
<g id="edge17" class="edge">
<title>core/verifications&#45;&gt;core</title>
<path fill="none" stroke="#000000" d="M1895.3843,-103.015C1834.0255,-118.0631 1731.2674,-142.3204 1676.9637,-154.5058"/>
<polygon fill="#000000" stroke="#000000" points="1676.0914,-151.1142 1667.0921,-156.7057 1677.614,-157.9466 1676.0914,-151.1142"/>
</g>
<!-- core/verifications&#45;&gt;ecl -->
<g id="edge18" class="edge">
<title>core/verifications&#45;&gt;ecl</title>
<path fill="none" stroke="#000000" d="M1991.3737,-76.2029C2038.4126,-62.2078 2110.1377,-40.8681 2152.4195,-28.2884"/>
<polygon fill="#000000" stroke="#000000" points="2153.6607,-31.5708 2162.2474,-25.3644 2151.6645,-24.8615 2153.6607,-31.5708"/>
</g>
<!-- launching -->
<g id="node14" class="node">
<title>launching</title>
<ellipse fill="#b2dfee" stroke="#b2dfee" cx="2184" cy="-378" rx="44.9596" ry="18"/>
<text text-anchor="middle" x="2184" y="-373.8" font-family="Times,serif" font-size="14.00" fill="#000000">launching</text>
</g>
<!-- launching&#45;&gt;core -->
<g id="edge19" class="edge">
<title>launching&#45;&gt;core</title>
<path fill="none" stroke="#000000" d="M2139.3904,-375.3613C2056.4475,-369.7812 1882.2622,-354.6965 1831,-324 1779.5235,-293.1752 1796.1357,-254.3601 1750,-216 1727.6503,-197.417 1697.8264,-183.2071 1675.0251,-174.0394"/>
<polygon fill="#000000" stroke="#000000" points="1675.9996,-170.6632 1665.4109,-170.3029 1673.4638,-177.1878 1675.9996,-170.6632"/>
</g>
<!-- launching&#45;&gt;watson -->
<g id="edge20" class="edge">
<title>launching&#45;&gt;watson</title>
<path fill="none" stroke="#000000" d="M2158.0516,-363.2654C2104.9553,-333.4186 1979.6615,-264.5365 1870,-216 1786.2813,-178.9459 1766.397,-163.7485 1677,-144 1552.8056,-116.5646 1163.2853,-97.6983 1029.5832,-91.8905"/>
<polygon fill="#000000" stroke="#000000" points="1029.4353,-88.381 1019.294,-91.4475 1029.1341,-95.3745 1029.4353,-88.381"/>
</g>
<!-- launching&#45;&gt;ecl -->
<g id="edge24" class="edge">
<title>launching&#45;&gt;ecl</title>
<path fill="none" stroke="#000000" d="M2226.093,-371.3052C2320.2507,-355.3636 2542.9297,-311.9607 2585,-252 2645.1399,-166.2857 2528.8042,-114.253 2433,-72 2362.9283,-41.0959 2273.588,-27.2023 2224.1454,-21.5089"/>
<polygon fill="#000000" stroke="#000000" points="2224.2524,-17.9997 2213.9295,-20.3846 2223.4866,-24.9576 2224.2524,-17.9997"/>
</g>
<!-- launching&#45;&gt;core/verifications -->
<g id="edge22" class="edge">
<title>launching&#45;&gt;core/verifications</title>
<path fill="none" stroke="#000000" d="M2165.9357,-361.2566C2154.472,-350.6127 2139.3381,-336.5267 2126,-324 2109.0418,-308.0734 2106.8569,-301.6254 2088,-288 2060.6003,-268.2017 2039.0136,-280.6046 2021,-252 1995.3942,-211.3394 2038.3346,-186.5453 2016,-144 2009.223,-131.0905 1997.8278,-120.3727 1986.1278,-111.9806"/>
<polygon fill="#000000" stroke="#000000" points="1987.8732,-108.9372 1977.6162,-106.2828 1983.9792,-114.7541 1987.8732,-108.9372"/>
</g>
<!-- core/contexts -->
<g id="node15" class="node">
<title>core/contexts</title>
<ellipse fill="#b2dfee" stroke="#b2dfee" cx="2087" cy="-234" rx="57.0047" ry="18"/>
<text text-anchor="middle" x="2087" y="-229.8" font-family="Times,serif" font-size="14.00" fill="#000000">core/contexts</text>
</g>
<!-- launching&#45;&gt;core/contexts -->
<g id="edge21" class="edge">
<title>launching&#45;&gt;core/contexts</title>
<path fill="none" stroke="#000000" d="M2172.9371,-360.2284C2161.4633,-341.9422 2142.873,-312.7176 2126,-288 2119.7409,-278.8309 2112.6917,-268.9448 2106.3252,-260.169"/>
<polygon fill="#000000" stroke="#000000" points="2108.9628,-257.8458 2100.2409,-251.8309 2103.3082,-261.972 2108.9628,-257.8458"/>
</g>
<!-- rcp -->
<g id="node16" class="node">
<title>rcp</title>
<ellipse fill="#b2dfee" stroke="#b2dfee" cx="2350" cy="-306" rx="27" ry="18"/>
<text text-anchor="middle" x="2350" y="-301.8" font-family="Times,serif" font-size="14.00" fill="#000000">rcp</text>
</g>
<!-- launching&#45;&gt;rcp -->
<g id="edge23" class="edge">
<title>launching&#45;&gt;rcp</title>
<path fill="none" stroke="#000000" d="M2211.6673,-363.6028C2240.5887,-350.3089 2285.7202,-330.7782 2316.5972,-318.2245"/>
<polygon fill="#000000" stroke="#000000" points="2318.1104,-321.3884 2326.0827,-314.4104 2315.4989,-314.8938 2318.1104,-321.3884"/>
</g>
<!-- core/contexts&#45;&gt;core -->
<g id="edge35" class="edge">
<title>core/contexts&#45;&gt;core</title>
<path fill="none" stroke="#000000" d="M2035.8381,-225.7407C1944.7439,-211.0349 1756.5811,-180.6588 1677.3879,-167.8743"/>
<polygon fill="#000000" stroke="#000000" points="1677.8288,-164.4002 1667.3987,-166.2617 1676.7131,-171.3107 1677.8288,-164.4002"/>
</g>
<!-- core/contexts&#45;&gt;ecl -->
<g id="edge36" class="edge">
<title>core/contexts&#45;&gt;ecl</title>
<path fill="none" stroke="#000000" d="M2095.3539,-215.9555C2112.9848,-177.8728 2154.0669,-89.1355 2174.7055,-44.556"/>
<polygon fill="#000000" stroke="#000000" points="2177.9933,-45.7853 2179.0185,-35.2401 2171.641,-42.8443 2177.9933,-45.7853"/>
</g>
<!-- rcp&#45;&gt;core -->
<g id="edge57" class="edge">
<title>rcp&#45;&gt;core</title>
<path fill="none" stroke="#000000" d="M2327.6191,-295.6661C2321.6233,-293.0377 2315.109,-290.3068 2309,-288 2259.6891,-269.3799 2242.1879,-277.3959 2196,-252 2174.1592,-239.9911 2175.9468,-225.7302 2153,-216 2109.5039,-197.5562 1788.616,-172.744 1678.1995,-164.6634"/>
<polygon fill="#000000" stroke="#000000" points="1678.4153,-161.1699 1668.1875,-163.9344 1677.9069,-168.1514 1678.4153,-161.1699"/>
</g>
<!-- rcp&#45;&gt;watson -->
<g id="edge58" class="edge">
<title>rcp&#45;&gt;watson</title>
<path fill="none" stroke="#000000" d="M2376.7363,-302.0526C2434.1457,-292.5342 2560.5987,-265.3772 2517,-216 2506.3092,-203.8923 1956.0863,-145.4563 1940,-144 1590.2607,-112.3382 1166.754,-96.1599 1029.3692,-91.471"/>
<polygon fill="#000000" stroke="#000000" points="1029.3333,-87.9679 1019.2207,-91.1279 1029.0967,-94.9639 1029.3333,-87.9679"/>
</g>
<!-- rcp&#45;&gt;ecl -->
<g id="edge62" class="edge">
<title>rcp&#45;&gt;ecl</title>
<path fill="none" stroke="#000000" d="M2376.8362,-303.4069C2429.7617,-297.6798 2544.5119,-282.0161 2568,-252 2577.8602,-239.3994 2576.3051,-229.6757 2568,-216 2490.8823,-89.0135 2302.9173,-39.7434 2223.44,-24.148"/>
<polygon fill="#000000" stroke="#000000" points="2223.8877,-20.6706 2213.4108,-22.247 2222.5841,-27.5481 2223.8877,-20.6706"/>
</g>
<!-- rcp&#45;&gt;core/verifications -->
<g id="edge60" class="edge">
<title>rcp&#45;&gt;core/verifications</title>
<path fill="none" stroke="#000000" d="M2376.9899,-303.8731C2442.1404,-297.7377 2599.1264,-276.4118 2550,-216 2516.4396,-174.7301 2171.7977,-121.7858 2018.1925,-100.0223"/>
<polygon fill="#000000" stroke="#000000" points="2018.3039,-96.5034 2007.913,-98.572 2017.326,-103.4347 2018.3039,-96.5034"/>
</g>
<!-- rcp&#45;&gt;launching -->
<g id="edge61" class="edge">
<title>rcp&#45;&gt;launching</title>
<path fill="none" stroke="#000000" d="M2328.9688,-317.323C2303.278,-329.3287 2259.5427,-348.3928 2226.7425,-361.9458"/>
<polygon fill="#000000" stroke="#000000" points="2225.3012,-358.7539 2217.3766,-365.7862 2227.9569,-365.2306 2225.3012,-358.7539"/>
</g>
<!-- rcp&#45;&gt;core/contexts -->
<g id="edge59" class="edge">
<title>rcp&#45;&gt;core/contexts</title>
<path fill="none" stroke="#000000" d="M2327.7295,-295.3564C2321.7328,-292.7304 2315.1905,-290.0781 2309,-288 2243.5947,-266.0444 2224.9954,-268.4777 2158,-252 2152.6748,-250.6902 2147.1289,-249.311 2141.5878,-247.9228"/>
<polygon fill="#000000" stroke="#000000" points="2142.2194,-244.4727 2131.6676,-245.4274 2140.5117,-251.2612 2142.2194,-244.4727"/>
</g>
<!-- modules/rap/bundles/runtime/verifications -->
<g id="node18" class="node">
<title>modules/rap/bundles/runtime/verifications</title>
<ellipse fill="#b2dfee" stroke="#b2dfee" cx="1493" cy="-522" rx="159.8552" ry="18"/>
<text text-anchor="middle" x="1493" y="-517.8" font-family="Times,serif" font-size="14.00" fill="#000000">modules/rap/bundles/runtime/verifications</text>
</g>
<!-- modules/rap/bundles/runtime/verifications&#45;&gt;core -->
<g id="edge27" class="edge">
<title>modules/rap/bundles/runtime/verifications&#45;&gt;core</title>
<path fill="none" stroke="#000000" d="M1500.5428,-503.6526C1524.8532,-444.5192 1601.2321,-258.7327 1629.9435,-188.8943"/>
<polygon fill="#000000" stroke="#000000" points="1633.2565,-190.0402 1633.8218,-179.4605 1626.7823,-187.3785 1633.2565,-190.0402"/>
</g>
<!-- modules/rap/bundles/runtime/verifications&#45;&gt;modules/rap/bundles/runtime/tesla -->
<g id="edge28" class="edge">
<title>modules/rap/bundles/runtime/verifications&#45;&gt;modules/rap/bundles/runtime/tesla</title>
<path fill="none" stroke="#000000" d="M1441.337,-504.937C1409.479,-494.4151 1368.4858,-480.876 1335.1666,-469.8715"/>
<polygon fill="#000000" stroke="#000000" points="1336.1333,-466.5049 1325.5401,-466.6921 1333.9379,-473.1518 1336.1333,-466.5049"/>
</g>
<!-- modules/rap/bundles/runtime/verifications&#45;&gt;modules/rap/bundles/runtime -->
<g id="edge29" class="edge">
<title>modules/rap/bundles/runtime/verifications&#45;&gt;modules/rap/bundles/runtime</title>
<path fill="none" stroke="#000000" d="M1481.9799,-503.7334C1468.7657,-483.3459 1444.7614,-450.7631 1416,-432 1388.6477,-414.1561 1355.1468,-401.9972 1324.5551,-393.8109"/>
<polygon fill="#000000" stroke="#000000" points="1325.2926,-390.3868 1314.7364,-391.2904 1323.5521,-397.167 1325.2926,-390.3868"/>
</g>
<!-- modules/rap/bundles/runtime/verifications&#45;&gt;core/verifications -->
<g id="edge30" class="edge">
<title>modules/rap/bundles/runtime/verifications&#45;&gt;core/verifications</title>
<path fill="none" stroke="#000000" d="M1511.8464,-503.9875C1583.2257,-435.7666 1837.0656,-193.1585 1919.1743,-114.683"/>
<polygon fill="#000000" stroke="#000000" points="1921.7614,-117.0519 1926.5723,-107.6123 1916.9248,-111.9914 1921.7614,-117.0519"/>
</g>
<!-- modules/rap/bundles/runtime/verifications&#45;&gt;modules/rap/bundles/runtime/ecl -->
<g id="edge31" class="edge">
<title>modules/rap/bundles/runtime/verifications&#45;&gt;modules/rap/bundles/runtime/ecl</title>
<path fill="none" stroke="#000000" d="M1485.948,-503.9455C1478.219,-485.1753 1464.7945,-455.3323 1449,-432 1423.0735,-393.7003 1386.1456,-355.0538 1361.4155,-330.8501"/>
<polygon fill="#000000" stroke="#000000" points="1363.7755,-328.2633 1354.158,-323.8187 1358.9047,-333.2908 1363.7755,-328.2633"/>
</g>
<!-- modules/rap/bundles/runtime/ecl&#45;&gt;core -->
<g id="edge49" class="edge">
<title>modules/rap/bundles/runtime/ecl&#45;&gt;core</title>
<path fill="none" stroke="#000000" d="M1372.3821,-288.6751C1395.1285,-278.1141 1424.7598,-264.3222 1451,-252 1506.8036,-225.795 1571.6812,-194.9905 1609.3664,-177.0636"/>
<polygon fill="#000000" stroke="#000000" points="1611.2659,-180.0358 1618.7919,-172.5786 1608.2582,-173.7149 1611.2659,-180.0358"/>
</g>
<!-- modules/rap/bundles/runtime/ecl&#45;&gt;watson -->
<g id="edge52" class="edge">
<title>modules/rap/bundles/runtime/ecl&#45;&gt;watson</title>
<path fill="none" stroke="#000000" d="M1283.7146,-289.541C1257.3185,-280.1466 1225.0834,-267.2104 1198,-252 1124.2247,-210.5667 1047.4403,-146.4056 1009.0337,-112.605"/>
<polygon fill="#000000" stroke="#000000" points="1011.2413,-109.8847 1001.4356,-105.8723 1006.5988,-115.1238 1011.2413,-109.8847"/>
</g>
<!-- modules/rap/bundles/runtime/ecl&#45;&gt;ecl -->
<g id="edge54" class="edge">
<title>modules/rap/bundles/runtime/ecl&#45;&gt;ecl</title>
<path fill="none" stroke="#000000" d="M1278.2508,-289.7744C1259.9251,-281.5506 1241.6161,-269.474 1231,-252 1222.6924,-238.3258 1221.7639,-229.065 1231,-216 1340.2633,-61.4413 1986.5449,-25.8607 2149.6387,-19.2985"/>
<polygon fill="#000000" stroke="#000000" points="2149.8159,-22.7944 2159.6719,-18.9073 2149.543,-15.7997 2149.8159,-22.7944"/>
</g>
<!-- modules/rap/bundles/runtime/ecl&#45;&gt;modules/rap/bundles/runtime/tesla -->
<g id="edge50" class="edge">
<title>modules/rap/bundles/runtime/ecl&#45;&gt;modules/rap/bundles/runtime/tesla</title>
<path fill="none" stroke="#000000" d="M1347.7536,-324.1791C1359.279,-343.0508 1372.6506,-372.9756 1360,-396 1352.7493,-409.1966 1340.7567,-419.6256 1328.0335,-427.6557"/>
<polygon fill="#000000" stroke="#000000" points="1326.0299,-424.7725 1319.1577,-432.8363 1329.5586,-430.8181 1326.0299,-424.7725"/>
</g>
<!-- modules/rap/bundles/runtime/ecl&#45;&gt;modules/rap/bundles/runtime -->
<g id="edge51" class="edge">
<title>modules/rap/bundles/runtime/ecl&#45;&gt;modules/rap/bundles/runtime</title>
<path fill="none" stroke="#000000" d="M1316.4099,-324.0206C1304.7178,-333.2814 1289.3493,-344.6778 1275.2056,-354.6088"/>
<polygon fill="#000000" stroke="#000000" points="1272.8276,-351.9985 1266.6013,-360.5708 1276.8144,-357.7522 1272.8276,-351.9985"/>
</g>
<!-- modules/rap/bundles/core -->
<g id="node26" class="node">
<title>modules/rap/bundles/core</title>
<ellipse fill="#b2dfee" stroke="#b2dfee" cx="1341" cy="-234" rx="101.4297" ry="18"/>
<text text-anchor="middle" x="1341" y="-229.8" font-family="Times,serif" font-size="14.00" fill="#000000">modules/rap/bundles/core</text>
</g>
<!-- modules/rap/bundles/runtime/ecl&#45;&gt;modules/rap/bundles/core -->
<g id="edge53" class="edge">
<title>modules/rap/bundles/runtime/ecl&#45;&gt;modules/rap/bundles/core</title>
<path fill="none" stroke="#000000" d="M1336.5141,-287.8314C1337.1558,-280.131 1337.9188,-270.9743 1338.6319,-262.4166"/>
<polygon fill="#000000" stroke="#000000" points="1342.1229,-262.6694 1339.4656,-252.4133 1335.1471,-262.088 1342.1229,-262.6694"/>
</g>
<!-- modules/rap/bundles/launching -->
<g id="node20" class="node">
<title>modules/rap/bundles/launching</title>
<ellipse fill="#b2dfee" stroke="#b2dfee" cx="2623" cy="-450" rx="121.2418" ry="18"/>
<text text-anchor="middle" x="2623" y="-445.8" font-family="Times,serif" font-size="14.00" fill="#000000">modules/rap/bundles/launching</text>
</g>
<!-- modules/rap/bundles/launching&#45;&gt;core -->
<g id="edge32" class="edge">
<title>modules/rap/bundles/launching&#45;&gt;core</title>
<path fill="none" stroke="#000000" d="M2601.478,-432.0254C2561.3979,-399.3238 2471.6033,-329.6405 2386,-288 2338.22,-264.7581 2319.2583,-276.2851 2272,-252 2248.2817,-239.8117 2248.882,-225.5916 2224,-216 2123.6193,-177.3048 1790.6573,-165.6812 1678.3579,-162.8159"/>
<polygon fill="#000000" stroke="#000000" points="1678.2775,-159.313 1668.1942,-162.5654 1678.1049,-166.3109 1678.2775,-159.313"/>
</g>
<!-- modules/rap/bundles/launching&#45;&gt;launching -->
<g id="edge33" class="edge">
<title>modules/rap/bundles/launching&#45;&gt;launching</title>
<path fill="none" stroke="#000000" d="M2537.5121,-437.1539C2468.2673,-426.5917 2368.2363,-410.9784 2281,-396 2266.05,-393.4331 2249.8349,-390.488 2235.0192,-387.7336"/>
<polygon fill="#000000" stroke="#000000" points="2235.4914,-384.2613 2225.0186,-385.8641 2234.2051,-391.1421 2235.4914,-384.2613"/>
</g>
<!-- modules/rap/bundles/launching&#45;&gt;rcp -->
<g id="edge34" class="edge">
<title>modules/rap/bundles/launching&#45;&gt;rcp</title>
<path fill="none" stroke="#000000" d="M2535.3348,-437.5314C2462.5319,-426.3169 2368.9985,-409.5686 2357,-396 2342.3036,-379.3806 2341.72,-353.6218 2344.1351,-333.9129"/>
<polygon fill="#000000" stroke="#000000" points="2347.6049,-334.3763 2345.6634,-323.9609 2340.686,-333.3137 2347.6049,-334.3763"/>
</g>
<!-- ecl/tests -->
<g id="node23" class="node">
<title>ecl/tests</title>
<ellipse fill="#b2dfee" stroke="#b2dfee" cx="2575" cy="-90" rx="38.6869" ry="18"/>
<text text-anchor="middle" x="2575" y="-85.8" font-family="Times,serif" font-size="14.00" fill="#000000">ecl/tests</text>
</g>
<!-- ecl/tests&#45;&gt;ecl -->
<g id="edge39" class="edge">
<title>ecl/tests&#45;&gt;ecl</title>
<path fill="none" stroke="#000000" d="M2544.7111,-78.7401C2537.3494,-76.2747 2529.4502,-73.8517 2522,-72 2415.2621,-45.4707 2286.0345,-28.9158 2223.891,-21.8968"/>
<polygon fill="#000000" stroke="#000000" points="2224.1223,-18.4011 2213.7967,-20.7743 2223.3486,-25.3582 2224.1223,-18.4011"/>
</g>
<!-- runner -->
<g id="node24" class="node">
<title>runner</title>
<ellipse fill="#b2dfee" stroke="#b2dfee" cx="2322" cy="-522" rx="33.3752" ry="18"/>
<text text-anchor="middle" x="2322" y="-517.8" font-family="Times,serif" font-size="14.00" fill="#000000">runner</text>
</g>
<!-- runner&#45;&gt;core -->
<g id="edge40" class="edge">
<title>runner&#45;&gt;core</title>
<path fill="none" stroke="#000000" d="M2288.4142,-521.4568C2164.6626,-519.1414 1739.0321,-508.2875 1695,-468 1615.778,-395.5152 1627.1055,-250.7539 1636.0661,-189.9325"/>
<polygon fill="#000000" stroke="#000000" points="1639.5449,-190.3399 1637.6345,-179.9187 1632.6292,-189.2567 1639.5449,-190.3399"/>
</g>
<!-- runner&#45;&gt;watson -->
<g id="edge41" class="edge">
<title>runner&#45;&gt;watson</title>
<path fill="none" stroke="#000000" d="M2288.5611,-520.772C2162.1763,-515.9264 1717.9621,-496.9696 1662,-468 1532.2749,-400.846 1574.0899,-294.6584 1451,-216 1313.9857,-128.4434 1117.0728,-101.2532 1029.2553,-93.2015"/>
<polygon fill="#000000" stroke="#000000" points="1029.3654,-89.6978 1019.098,-92.3116 1028.7544,-96.6711 1029.3654,-89.6978"/>
</g>
<!-- runner&#45;&gt;ecl -->
<g id="edge44" class="edge">
<title>runner&#45;&gt;ecl</title>
<path fill="none" stroke="#000000" d="M2355.2727,-521.244C2470.0076,-518.3203 2848.3684,-505.9584 2963,-468 3035.0042,-444.157 3108,-453.8491 3108,-378 3108,-378 3108,-378 3108,-162 3108,-117.669 3101.7559,-96.7838 3065,-72 3029.6491,-48.1636 2387.6814,-24.8164 2224.4855,-19.2482"/>
<polygon fill="#000000" stroke="#000000" points="2224.5529,-15.7485 2214.44,-18.9073 2224.3155,-22.7445 2224.5529,-15.7485"/>
</g>
<!-- runner&#45;&gt;launching -->
<g id="edge43" class="edge">
<title>runner&#45;&gt;launching</title>
<path fill="none" stroke="#000000" d="M2322.7573,-503.7574C2322.62,-483.996 2319.4951,-452.5477 2303,-432 2285.7739,-410.5417 2258.1585,-397.2951 2233.8652,-389.2959"/>
<polygon fill="#000000" stroke="#000000" points="2234.6359,-385.8713 2224.049,-386.2806 2232.5804,-392.5627 2234.6359,-385.8713"/>
</g>
<!-- runner&#45;&gt;modules/rap/bundles/launching -->
<g id="edge42" class="edge">
<title>runner&#45;&gt;modules/rap/bundles/launching</title>
<path fill="none" stroke="#000000" d="M2352.5179,-514.7C2398.2707,-503.7558 2486.0047,-482.7696 2549.1633,-467.6619"/>
<polygon fill="#000000" stroke="#000000" points="2550.1673,-471.0206 2559.0786,-465.2902 2548.5387,-464.2127 2550.1673,-471.0206"/>
</g>
<!-- modules/testrail -->
<g id="node25" class="node">
<title>modules/testrail</title>
<ellipse fill="#b2dfee" stroke="#b2dfee" cx="2417" cy="-450" rx="66.6925" ry="18"/>
<text text-anchor="middle" x="2417" y="-445.8" font-family="Times,serif" font-size="14.00" fill="#000000">modules/testrail</text>
</g>
<!-- modules/testrail&#45;&gt;core -->
<g id="edge45" class="edge">
<title>modules/testrail&#45;&gt;core</title>
<path fill="none" stroke="#000000" d="M2360.4955,-440.4332C2283.1056,-427.1672 2151.2602,-403.923 2130,-396 1981.0703,-340.4986 1966.7969,-279.2749 1821,-216 1772.5783,-194.9853 1713.4668,-178.9646 1676.5173,-170.019"/>
<polygon fill="#000000" stroke="#000000" points="1677.2492,-166.5956 1666.7106,-167.6853 1675.6286,-173.4054 1677.2492,-166.5956"/>
</g>
<!-- modules/testrail&#45;&gt;ecl -->
<g id="edge48" class="edge">
<title>modules/testrail&#45;&gt;ecl</title>
<path fill="none" stroke="#000000" d="M2439.8552,-432.89C2512.7954,-376.3249 2729.1627,-192.1225 2623,-72 2596.7179,-42.262 2324.9719,-25.185 2224.2711,-19.8386"/>
<polygon fill="#000000" stroke="#000000" points="2224.4099,-16.3412 2214.241,-19.3151 2224.0449,-23.3317 2224.4099,-16.3412"/>
</g>
<!-- modules/testrail&#45;&gt;launching -->
<g id="edge46" class="edge">
<title>modules/testrail&#45;&gt;launching</title>
<path fill="none" stroke="#000000" d="M2372.9006,-436.3727C2331.8615,-423.6911 2270.9635,-404.8728 2229.4848,-392.0554"/>
<polygon fill="#000000" stroke="#000000" points="2230.4912,-388.7031 2219.9036,-389.0947 2228.4245,-395.3911 2230.4912,-388.7031"/>
</g>
<!-- modules/testrail&#45;&gt;rcp -->
<g id="edge47" class="edge">
<title>modules/testrail&#45;&gt;rcp</title>
<path fill="none" stroke="#000000" d="M2371.6682,-436.7289C2351.8403,-428.4189 2330.5107,-415.4851 2319,-396 2306.7369,-375.2412 2318.5197,-348.9125 2330.9237,-330.1047"/>
<polygon fill="#000000" stroke="#000000" points="2333.8833,-331.9805 2336.7707,-321.7867 2328.1566,-327.955 2333.8833,-331.9805"/>
</g>
<!-- modules/rap/bundles/core&#45;&gt;core -->
<g id="edge91" class="edge">
<title>modules/rap/bundles/core&#45;&gt;core</title>
<path fill="none" stroke="#000000" d="M1401.3486,-219.5163C1462.6574,-204.8022 1555.5275,-182.5134 1605.7567,-170.4584"/>
<polygon fill="#000000" stroke="#000000" points="1606.5996,-173.8556 1615.5066,-168.1184 1604.9659,-167.0489 1606.5996,-173.8556"/>
</g>
<!-- modules/rap/bundles/core&#45;&gt;ecl -->
<g id="edge92" class="edge">
<title>modules/rap/bundles/core&#45;&gt;ecl</title>
<path fill="none" stroke="#000000" d="M1376.2789,-217.0103C1447.315,-183.5687 1613.4209,-109.2291 1761,-72 1901.5503,-36.5441 2074.3465,-23.7961 2149.326,-19.7153"/>
<polygon fill="#000000" stroke="#000000" points="2149.8599,-23.1922 2159.6634,-19.1744 2149.4941,-16.2018 2149.8599,-23.1922"/>
</g>
<!-- modules/rap/bundles/ecl -->
<g id="node27" class="node">
<title>modules/rap/bundles/ecl</title>
<ellipse fill="#b2dfee" stroke="#b2dfee" cx="2411" cy="-234" rx="96.6103" ry="18"/>
<text text-anchor="middle" x="2411" y="-229.8" font-family="Times,serif" font-size="14.00" fill="#000000">modules/rap/bundles/ecl</text>
</g>
<!-- modules/rap/bundles/ecl&#45;&gt;core -->
<g id="edge55" class="edge">
<title>modules/rap/bundles/ecl&#45;&gt;core</title>
<path fill="none" stroke="#000000" d="M2340.3583,-221.6871C2326.9808,-219.5989 2313.081,-217.594 2300,-216 2064.1697,-187.2619 1778.9465,-169.697 1678.3225,-164.0219"/>
<polygon fill="#000000" stroke="#000000" points="1678.2494,-160.5125 1668.0697,-163.449 1677.8588,-167.5016 1678.2494,-160.5125"/>
</g>
<!-- modules/rap/bundles/ecl&#45;&gt;ecl -->
<g id="edge56" class="edge">
<title>modules/rap/bundles/ecl&#45;&gt;ecl</title>
<path fill="none" stroke="#000000" d="M2392.6691,-216.3238C2352.0585,-177.1635 2254.5874,-83.1736 2209.9843,-40.1634"/>
<polygon fill="#000000" stroke="#000000" points="2212.1736,-37.4124 2202.5457,-32.9905 2207.3147,-42.4513 2212.1736,-37.4124"/>
</g>
<!-- runtime/contexts -->
<g id="node28" class="node">
<title>runtime/contexts</title>
<ellipse fill="#b2dfee" stroke="#b2dfee" cx="636" cy="-450" rx="69.5823" ry="18"/>
<text text-anchor="middle" x="636" y="-445.8" font-family="Times,serif" font-size="14.00" fill="#000000">runtime/contexts</text>
</g>
<!-- runtime/contexts&#45;&gt;runtime/tesla -->
<g id="edge64" class="edge">
<title>runtime/contexts&#45;&gt;runtime/tesla</title>
<path fill="none" stroke="#000000" d="M583.9996,-437.8803C575.3227,-435.8923 566.4108,-433.8715 558,-432 491.2591,-417.1493 414.4045,-400.7869 363.2914,-390.0091"/>
<polygon fill="#000000" stroke="#000000" points="363.9294,-386.5667 353.4227,-387.9301 362.4864,-393.4164 363.9294,-386.5667"/>
</g>
<!-- runtime/contexts&#45;&gt;core -->
<g id="edge63" class="edge">
<title>runtime/contexts&#45;&gt;core</title>
<path fill="none" stroke="#000000" d="M704.2832,-446.0878C794.5176,-439.8501 947.5963,-425.248 995,-396 1078.3241,-344.5891 1037.5249,-265.4968 1122,-216 1163.4089,-191.7372 1491.8991,-170.6407 1603.8102,-164.0941"/>
<polygon fill="#000000" stroke="#000000" points="1604.1666,-167.5794 1613.9473,-163.5064 1603.7614,-160.5912 1604.1666,-167.5794"/>
</g>
<!-- runtime/contexts&#45;&gt;watson -->
<g id="edge65" class="edge">
<title>runtime/contexts&#45;&gt;watson</title>
<path fill="none" stroke="#000000" d="M631.5151,-431.991C622.3878,-391.8018 604.7203,-292.3304 632,-216 645.9233,-177.0417 655.3732,-165.0318 691,-144 732.3931,-119.5642 868.1212,-102.1467 939.3893,-94.4367"/>
<polygon fill="#000000" stroke="#000000" points="939.844,-97.9082 949.4176,-93.3699 939.1035,-90.9475 939.844,-97.9082"/>
</g>
<!-- runtime/contexts&#45;&gt;runtime -->
<g id="edge67" class="edge">
<title>runtime/contexts&#45;&gt;runtime</title>
<path fill="none" stroke="#000000" d="M615.494,-432.6302C584.672,-406.5222 526.4037,-357.1655 492.4307,-328.3884"/>
<polygon fill="#000000" stroke="#000000" points="494.6478,-325.6795 484.7551,-321.8867 490.1233,-331.0208 494.6478,-325.6795"/>
</g>
<!-- runtime/contexts&#45;&gt;core/contexts -->
<g id="edge66" class="edge">
<title>runtime/contexts&#45;&gt;core/contexts</title>
<path fill="none" stroke="#000000" d="M704.3782,-446.6885C933.8942,-435.0307 1675.127,-392.8376 1903,-324 1957.7619,-307.4571 2016.3566,-276.1665 2052.3433,-255.1951"/>
<polygon fill="#000000" stroke="#000000" points="2054.1503,-258.1929 2060.9893,-250.101 2050.5968,-252.1618 2054.1503,-258.1929"/>
</g>
<!-- testing -->
<g id="node29" class="node">
<title>testing</title>
<ellipse fill="#b2dfee" stroke="#b2dfee" cx="2920" cy="-450" rx="33.877" ry="18"/>
<text text-anchor="middle" x="2920" y="-445.8" font-family="Times,serif" font-size="14.00" fill="#000000">testing</text>
</g>
<!-- testing&#45;&gt;core -->
<g id="edge70" class="edge">
<title>testing&#45;&gt;core</title>
<path fill="none" stroke="#000000" d="M2893.7593,-438.607C2888.2562,-436.333 2882.4642,-434.0238 2877,-432 2682.0651,-359.8029 2630.9201,-348.356 2432,-288 2375.859,-270.9658 2356.858,-279.4357 2305,-252 2282.9687,-240.3442 2285.0351,-225.5194 2262,-216 2155.4347,-171.9615 1795.9851,-163.8222 1678.499,-162.331"/>
<polygon fill="#000000" stroke="#000000" points="1678.2589,-158.828 1668.2183,-162.2099 1678.1764,-165.8275 1678.2589,-158.828"/>
</g>
<!-- testing&#45;&gt;ecl -->
<g id="edge74" class="edge">
<title>testing&#45;&gt;ecl</title>
<path fill="none" stroke="#000000" d="M2946.817,-438.968C2989.9623,-419.2261 3070,-373.5059 3070,-306 3070,-306 3070,-306 3070,-162 3070,-119.3959 3071.137,-97.4907 3037,-72 3003.9917,-47.3521 2384.1754,-24.6912 2224.3452,-19.2401"/>
<polygon fill="#000000" stroke="#000000" points="2224.182,-15.7326 2214.0692,-18.8918 2223.9448,-22.7286 2224.182,-15.7326"/>
</g>
<!-- testing&#45;&gt;launching -->
<g id="edge72" class="edge">
<title>testing&#45;&gt;launching</title>
<path fill="none" stroke="#000000" d="M2894.5284,-437.7755C2888.87,-435.5042 2882.8212,-433.4067 2877,-432 2846.0989,-424.5328 2396.4199,-392.7636 2238.4092,-381.7654"/>
<polygon fill="#000000" stroke="#000000" points="2238.6494,-378.2738 2228.4307,-381.0715 2238.1637,-385.2569 2238.6494,-378.2738"/>
</g>
<!-- testing&#45;&gt;core/contexts -->
<g id="edge71" class="edge">
<title>testing&#45;&gt;core/contexts</title>
<path fill="none" stroke="#000000" d="M2894.447,-438.088C2888.7937,-435.7972 2882.7675,-433.6128 2877,-432 2773.1247,-402.9534 2740.7303,-425.5601 2637,-396 2520.2058,-362.7171 2502.2856,-323.0185 2386,-288 2306.8598,-264.1675 2212.5875,-249.2796 2151.3531,-241.3151"/>
<polygon fill="#000000" stroke="#000000" points="2151.4294,-237.7965 2141.0667,-240.0019 2150.5429,-244.7401 2151.4294,-237.7965"/>
</g>
<!-- testing&#45;&gt;rcp -->
<g id="edge73" class="edge">
<title>testing&#45;&gt;rcp</title>
<path fill="none" stroke="#000000" d="M2894.5027,-437.8795C2888.8459,-435.6016 2882.8042,-433.4752 2877,-432 2723.7284,-393.0439 2674.5176,-441.3012 2523,-396 2468.4447,-379.6889 2410.9019,-345.9637 2377.8445,-324.7462"/>
<polygon fill="#000000" stroke="#000000" points="2379.4838,-321.6372 2369.1928,-319.1183 2375.6668,-327.505 2379.4838,-321.6372"/>
</g>
<!-- runtime/verifications -->
<g id="node30" class="node">
<title>runtime/verifications</title>
<ellipse fill="#b2dfee" stroke="#b2dfee" cx="465" cy="-450" rx="83.5736" ry="18"/>
<text text-anchor="middle" x="465" y="-445.8" font-family="Times,serif" font-size="14.00" fill="#000000">runtime/verifications</text>
</g>
<!-- runtime/verifications&#45;&gt;runtime/tesla -->
<g id="edge83" class="edge">
<title>runtime/verifications&#45;&gt;runtime/tesla</title>
<path fill="none" stroke="#000000" d="M428.9204,-433.6621C404.8719,-422.7722 373.1768,-408.4197 347.9948,-397.0165"/>
<polygon fill="#000000" stroke="#000000" points="349.2453,-393.7407 338.6919,-392.8039 346.3577,-400.1174 349.2453,-393.7407"/>
</g>
<!-- runtime/verifications&#45;&gt;core -->
<g id="edge82" class="edge">
<title>runtime/verifications&#45;&gt;core</title>
<path fill="none" stroke="#000000" d="M504.7362,-434.1175C631.0781,-383.7188 1018.7322,-229.8859 1078,-216 1178.7331,-192.3992 1495.1223,-171.0623 1603.864,-164.2544"/>
<polygon fill="#000000" stroke="#000000" points="1604.2573,-167.7368 1614.0208,-163.6231 1603.8229,-160.7503 1604.2573,-167.7368"/>
</g>
<!-- runtime/verifications&#45;&gt;runtime -->
<g id="edge84" class="edge">
<title>runtime/verifications&#45;&gt;runtime</title>
<path fill="none" stroke="#000000" d="M465.1267,-431.7623C465.2972,-407.201 465.6024,-363.2474 465.8031,-334.3541"/>
<polygon fill="#000000" stroke="#000000" points="469.3048,-334.1137 465.8744,-324.0896 462.3049,-334.065 469.3048,-334.1137"/>
</g>
<!-- runtime/verifications&#45;&gt;runtime/ecl -->
<g id="edge85" class="edge">
<title>runtime/verifications&#45;&gt;runtime/ecl</title>
<path fill="none" stroke="#000000" d="M457.7321,-431.9555C442.4691,-394.0613 407.0052,-306.0128 388.9641,-261.2213"/>
<polygon fill="#000000" stroke="#000000" points="392.1688,-259.8095 385.1861,-251.8413 385.6757,-262.4248 392.1688,-259.8095"/>
</g>
<!-- runtime/verifications&#45;&gt;core/verifications -->
<g id="edge86" class="edge">
<title>runtime/verifications&#45;&gt;core/verifications</title>
<path fill="none" stroke="#000000" d="M474.0852,-431.8726C498.0488,-386.2427 567.8678,-266.6731 665,-216 771.3518,-160.5171 1600.9845,-109.4031 1864.7647,-94.4139"/>
<polygon fill="#000000" stroke="#000000" points="1865.2447,-97.8924 1875.0308,-93.8326 1864.8488,-90.9036 1865.2447,-97.8924"/>
</g>
<!-- modules/rap/bundles/runtime/contexts -->
<g id="node31" class="node">
<title>modules/rap/bundles/runtime/contexts</title>
<ellipse fill="#b2dfee" stroke="#b2dfee" cx="1142" cy="-522" rx="145.8646" ry="18"/>
<text text-anchor="middle" x="1142" y="-517.8" font-family="Times,serif" font-size="14.00" fill="#000000">modules/rap/bundles/runtime/contexts</text>
</g>
<!-- modules/rap/bundles/runtime/contexts&#45;&gt;core -->
<g id="edge87" class="edge">
<title>modules/rap/bundles/runtime/contexts&#45;&gt;core</title>
<path fill="none" stroke="#000000" d="M1133.1022,-503.9996C1119.314,-473.5542 1096.1423,-410.2975 1114,-360 1141.5901,-282.2904 1159.0202,-256.2357 1231,-216 1294.6083,-180.4438 1515.1416,-167.3225 1603.7329,-163.4133"/>
<polygon fill="#000000" stroke="#000000" points="1604.0215,-166.9043 1613.8633,-162.9814 1603.7232,-159.9106 1604.0215,-166.9043"/>
</g>
<!-- modules/rap/bundles/runtime/contexts&#45;&gt;modules/rap/bundles/runtime/tesla -->
<g id="edge88" class="edge">
<title>modules/rap/bundles/runtime/contexts&#45;&gt;modules/rap/bundles/runtime/tesla</title>
<path fill="none" stroke="#000000" d="M1174.5355,-504.3868C1192.2472,-494.7985 1214.3531,-482.8314 1233.3159,-472.5658"/>
<polygon fill="#000000" stroke="#000000" points="1235.2116,-475.5196 1242.3395,-467.6809 1231.8791,-469.3637 1235.2116,-475.5196"/>
</g>
<!-- modules/rap/bundles/runtime/contexts&#45;&gt;modules/rap/bundles/runtime -->
<g id="edge89" class="edge">
<title>modules/rap/bundles/runtime/contexts&#45;&gt;modules/rap/bundles/runtime</title>
<path fill="none" stroke="#000000" d="M1134.4845,-504.0127C1127.7138,-484.7578 1120.686,-454.0129 1134,-432 1142.9532,-417.1971 1157.4517,-406.2539 1172.7804,-398.2451"/>
<polygon fill="#000000" stroke="#000000" points="1174.3803,-401.3593 1181.8661,-393.8617 1171.3386,-395.0547 1174.3803,-401.3593"/>
</g>
<!-- modules/rap/bundles/runtime/contexts&#45;&gt;core/contexts -->
<g id="edge90" class="edge">
<title>modules/rap/bundles/runtime/contexts&#45;&gt;core/contexts</title>
<path fill="none" stroke="#000000" d="M1252.6129,-510.2601C1276.1589,-507.9853 1300.8887,-505.7638 1324,-504 1398.225,-498.3353 1932.47,-511.3308 1993,-468 2060.9657,-419.3464 2079.8381,-313.1144 2085.0412,-262.2463"/>
<polygon fill="#000000" stroke="#000000" points="2088.5278,-262.5507 2085.9567,-252.2726 2081.5571,-261.9108 2088.5278,-262.5507"/>
</g>
<!-- rcp/verifications -->
<g id="node32" class="node">
<title>rcp/verifications</title>
<ellipse fill="#b2dfee" stroke="#b2dfee" cx="1772" cy="-450" rx="67.6442" ry="18"/>
<text text-anchor="middle" x="1772" y="-445.8" font-family="Times,serif" font-size="14.00" fill="#000000">rcp/verifications</text>
</g>
<!-- rcp/verifications&#45;&gt;core -->
<g id="edge93" class="edge">
<title>rcp/verifications&#45;&gt;core</title>
<path fill="none" stroke="#000000" d="M1762.3467,-431.6976C1757.0061,-421.3306 1750.3813,-408.0607 1745,-396 1709.9585,-317.4644 1712.3428,-292.9778 1674,-216 1669.2009,-206.3652 1663.242,-196.1963 1657.7139,-187.3131"/>
<polygon fill="#000000" stroke="#000000" points="1660.4929,-185.1606 1652.1756,-178.5976 1654.5849,-188.9149 1660.4929,-185.1606"/>
</g>
<!-- rcp/verifications&#45;&gt;runtime -->
<g id="edge94" class="edge">
<title>rcp/verifications&#45;&gt;runtime</title>
<path fill="none" stroke="#000000" d="M1724.5388,-437.1172C1648.3194,-417 1493.6208,-378.5166 1360,-360 1194.0302,-337.0006 673.8953,-314.4541 513.545,-307.8985"/>
<polygon fill="#000000" stroke="#000000" points="513.645,-304.3998 503.5108,-307.49 513.3602,-311.394 513.645,-304.3998"/>
</g>
<!-- rcp/verifications&#45;&gt;core/verifications -->
<g id="edge95" class="edge">
<title>rcp/verifications&#45;&gt;core/verifications</title>
<path fill="none" stroke="#000000" d="M1797.3175,-433.2881C1827.6475,-411.8149 1877.5467,-371.5798 1903,-324 1939.0485,-256.6146 1944.9225,-164.2956 1945.4129,-118.3606"/>
<polygon fill="#000000" stroke="#000000" points="1948.9131,-118.2533 1945.4398,-108.244 1941.9131,-118.2346 1948.9131,-118.2533"/>
</g>
<!-- rcp/verifications&#45;&gt;launching -->
<g id="edge96" class="edge">
<title>rcp/verifications&#45;&gt;launching</title>
<path fill="none" stroke="#000000" d="M1821.565,-437.714C1830.6598,-435.6591 1840.0924,-433.659 1849,-432 1962.8202,-410.8009 1993.1798,-417.1991 2107,-396 2116.4158,-394.2463 2126.4183,-392.1116 2135.9883,-389.9338"/>
<polygon fill="#000000" stroke="#000000" points="2136.8136,-393.3354 2145.762,-387.6629 2135.2293,-386.517 2136.8136,-393.3354"/>
</g>
<!-- rcp/verifications&#45;&gt;rcp -->
<g id="edge97" class="edge">
<title>rcp/verifications&#45;&gt;rcp</title>
<path fill="none" stroke="#000000" d="M1821.2004,-437.5386C1890.1873,-420.0868 2019.6016,-387.4256 2130,-360 2195.1936,-343.8044 2271.3293,-325.1812 2314.7832,-314.5798"/>
<polygon fill="#000000" stroke="#000000" points="2315.6956,-317.96 2324.5816,-312.1901 2314.037,-311.1593 2315.6956,-317.96"/>
</g>
<!-- launching/tests -->
<g id="node33" class="node">
<title>launching/tests</title>
<ellipse fill="#b2dfee" stroke="#b2dfee" cx="1921" cy="-450" rx="63.3184" ry="18"/>
<text text-anchor="middle" x="1921" y="-445.8" font-family="Times,serif" font-size="14.00" fill="#000000">launching/tests</text>
</g>
<!-- launching/tests&#45;&gt;core -->
<g id="edge101" class="edge">
<title>launching/tests&#45;&gt;core</title>
<path fill="none" stroke="#000000" d="M1902.0281,-432.5096C1876.2949,-408.5857 1829.1594,-364.0496 1791,-324 1746.9019,-277.7175 1739.9486,-262.4245 1696,-216 1685.7368,-205.1586 1673.9735,-193.511 1663.9668,-183.8189"/>
<polygon fill="#000000" stroke="#000000" points="1666.3426,-181.2478 1656.7109,-176.8341 1661.488,-186.2908 1666.3426,-181.2478"/>
</g>
<!-- launching/tests&#45;&gt;launching -->
<g id="edge102" class="edge">
<title>launching/tests&#45;&gt;launching</title>
<path fill="none" stroke="#000000" d="M1966.8111,-437.4586C2014.488,-424.4063 2088.7824,-404.0672 2136.9238,-390.8878"/>
<polygon fill="#000000" stroke="#000000" points="2138.0598,-394.2057 2146.7807,-388.1893 2136.2114,-387.4541 2138.0598,-394.2057"/>
</g>
<!-- tests -->
<g id="node34" class="node">
<title>tests</title>
<ellipse fill="#b2dfee" stroke="#b2dfee" cx="1867" cy="-306" rx="27" ry="18"/>
<text text-anchor="middle" x="1867" y="-301.8" font-family="Times,serif" font-size="14.00" fill="#000000">tests</text>
</g>
<!-- tests&#45;&gt;core -->
<g id="edge103" class="edge">
<title>tests&#45;&gt;core</title>
<path fill="none" stroke="#000000" d="M1856.1115,-289.1222C1842.42,-269.1204 1817.1463,-235.9923 1788,-216 1753.8566,-192.58 1708.3166,-177.9148 1677.0211,-169.8761"/>
<polygon fill="#000000" stroke="#000000" points="1677.5382,-166.3988 1666.9909,-167.4009 1675.8611,-173.1949 1677.5382,-166.3988"/>
</g>
<!-- tests&#45;&gt;core/contexts -->
<g id="edge104" class="edge">
<title>tests&#45;&gt;core/contexts</title>
<path fill="none" stroke="#000000" d="M1891.3844,-298.0196C1926.5088,-286.5244 1992.1124,-265.0541 2037.6073,-250.1649"/>
<polygon fill="#000000" stroke="#000000" points="2038.8618,-253.4371 2047.2771,-247.0002 2036.6845,-246.7843 2038.8618,-253.4371"/>
</g>
<!-- rcp/contexts -->
<g id="node35" class="node">
<title>rcp/contexts</title>
<ellipse fill="#b2dfee" stroke="#b2dfee" cx="2815" cy="-450" rx="53.1539" ry="18"/>
<text text-anchor="middle" x="2815" y="-445.8" font-family="Times,serif" font-size="14.00" fill="#000000">rcp/contexts</text>
</g>
<!-- rcp/contexts&#45;&gt;core -->
<g id="edge112" class="edge">
<title>rcp/contexts&#45;&gt;core</title>
<path fill="none" stroke="#000000" d="M2774.2022,-438.1986C2729.951,-425.296 2662.2504,-405.2297 2637,-396 2522.9372,-354.3069 2501.5622,-325.3367 2386,-288 2315.8158,-265.3244 2288.6552,-287.4922 2224,-252 2204.1647,-241.1115 2208.4538,-225.6768 2188,-216 2097.2151,-173.0493 1785.9168,-164.222 1678.1064,-162.4408"/>
<polygon fill="#000000" stroke="#000000" points="1678.0817,-158.9401 1668.0288,-162.2853 1677.9736,-165.9393 1678.0817,-158.9401"/>
</g>
<!-- rcp/contexts&#45;&gt;ecl -->
<g id="edge116" class="edge">
<title>rcp/contexts&#45;&gt;ecl</title>
<path fill="none" stroke="#000000" d="M2848.4307,-435.8483C2909.3009,-409.0116 3032,-349.5184 3032,-306 3032,-306 3032,-306 3032,-162 3032,-121.1184 3043.8959,-98.7722 3013,-72 2982.8087,-45.8384 2381.7236,-24.3789 2224.4129,-19.1951"/>
<polygon fill="#000000" stroke="#000000" points="2224.3936,-15.6927 2214.2844,-18.8637 2224.1646,-22.689 2224.3936,-15.6927"/>
</g>
<!-- rcp/contexts&#45;&gt;launching -->
<g id="edge114" class="edge">
<title>rcp/contexts&#45;&gt;launching</title>
<path fill="none" stroke="#000000" d="M2776.2656,-437.4263C2768.6214,-435.3231 2760.6097,-433.3795 2753,-432 2545.9872,-394.4712 2489.6172,-423.232 2281,-396 2265.6828,-394.0006 2249.1192,-391.1759 2234.0883,-388.3556"/>
<polygon fill="#000000" stroke="#000000" points="2234.4415,-384.8597 2223.9613,-386.414 2233.1234,-391.7344 2234.4415,-384.8597"/>
</g>
<!-- rcp/contexts&#45;&gt;core/contexts -->
<g id="edge113" class="edge">
<title>rcp/contexts&#45;&gt;core/contexts</title>
<path fill="none" stroke="#000000" d="M2776.2479,-437.5218C2768.6053,-435.4102 2760.5987,-433.4392 2753,-432 2581.5356,-399.5244 2528.083,-449.5832 2362,-396 2264.2456,-364.4616 2163.8705,-293.6568 2115.925,-256.9877"/>
<polygon fill="#000000" stroke="#000000" points="2117.9223,-254.108 2107.8677,-250.7677 2113.6447,-259.649 2117.9223,-254.108"/>
</g>
<!-- rcp/contexts&#45;&gt;rcp -->
<g id="edge115" class="edge">
<title>rcp/contexts&#45;&gt;rcp</title>
<path fill="none" stroke="#000000" d="M2776.2382,-437.573C2768.5964,-435.4569 2760.5925,-433.4711 2753,-432 2674.5031,-416.7905 2460.8244,-441.3899 2395,-396 2374.0849,-381.5778 2362.4105,-354.4968 2356.2275,-333.7939"/>
<polygon fill="#000000" stroke="#000000" points="2359.5487,-332.6689 2353.5458,-323.9387 2352.7943,-334.5068 2359.5487,-332.6689"/>
</g>
</g>
</svg>
